<mxfile host="Electron" agent="Mozilla/5.0 (Windows NT 10.0; Win64; x64) AppleWebKit/537.36 (KHTML, like Gecko) draw.io/28.2.5 Chrome/138.0.7204.251 Electron/37.6.1 Safari/537.36" version="28.2.5">
  <diagram name="Página-1" id="g0J1Jp8Llbei-Cm2oy53">
    <mxGraphModel dx="1678" dy="989" grid="1" gridSize="10" guides="1" tooltips="1" connect="1" arrows="1" fold="1" page="1" pageScale="1" pageWidth="827" pageHeight="1169" math="0" shadow="0">
      <root>
        <mxCell id="0" />
        <mxCell id="1" parent="0" />
        <mxCell id="PxOsfcCbK2ERCezt7H-_-29" style="edgeStyle=orthogonalEdgeStyle;rounded=0;orthogonalLoop=1;jettySize=auto;html=1;" edge="1" parent="1" source="PxOsfcCbK2ERCezt7H-_-1" target="PxOsfcCbK2ERCezt7H-_-11">
          <mxGeometry relative="1" as="geometry">
            <Array as="points">
              <mxPoint x="150" y="180" />
              <mxPoint x="150" y="180" />
            </Array>
          </mxGeometry>
        </mxCell>
        <mxCell id="PxOsfcCbK2ERCezt7H-_-31" style="edgeStyle=orthogonalEdgeStyle;rounded=0;orthogonalLoop=1;jettySize=auto;html=1;entryX=0;entryY=0.5;entryDx=0;entryDy=0;" edge="1" parent="1" source="PxOsfcCbK2ERCezt7H-_-1" target="PxOsfcCbK2ERCezt7H-_-14">
          <mxGeometry relative="1" as="geometry">
            <Array as="points">
              <mxPoint x="170" y="180" />
              <mxPoint x="170" y="350" />
            </Array>
          </mxGeometry>
        </mxCell>
        <mxCell id="PxOsfcCbK2ERCezt7H-_-32" style="edgeStyle=orthogonalEdgeStyle;rounded=0;orthogonalLoop=1;jettySize=auto;html=1;" edge="1" parent="1" source="PxOsfcCbK2ERCezt7H-_-1" target="PxOsfcCbK2ERCezt7H-_-27">
          <mxGeometry relative="1" as="geometry">
            <Array as="points">
              <mxPoint x="170" y="180" />
              <mxPoint x="170" y="400" />
              <mxPoint x="583" y="400" />
            </Array>
          </mxGeometry>
        </mxCell>
        <mxCell id="PxOsfcCbK2ERCezt7H-_-1" value="Administrador" style="shape=umlActor;verticalLabelPosition=bottom;verticalAlign=top;html=1;outlineConnect=0;" vertex="1" parent="1">
          <mxGeometry x="80" y="140" width="30" height="60" as="geometry" />
        </mxCell>
        <mxCell id="PxOsfcCbK2ERCezt7H-_-3" value="Atleta" style="shape=umlActor;verticalLabelPosition=bottom;verticalAlign=top;html=1;outlineConnect=0;" vertex="1" parent="1">
          <mxGeometry x="80" y="800" width="30" height="60" as="geometry" />
        </mxCell>
        <mxCell id="PxOsfcCbK2ERCezt7H-_-40" style="edgeStyle=orthogonalEdgeStyle;rounded=0;orthogonalLoop=1;jettySize=auto;html=1;" edge="1" parent="1" source="PxOsfcCbK2ERCezt7H-_-4" target="PxOsfcCbK2ERCezt7H-_-39">
          <mxGeometry relative="1" as="geometry" />
        </mxCell>
        <mxCell id="PxOsfcCbK2ERCezt7H-_-4" value="Público" style="shape=umlActor;verticalLabelPosition=bottom;verticalAlign=top;html=1;outlineConnect=0;" vertex="1" parent="1">
          <mxGeometry x="80" y="650" width="30" height="60" as="geometry" />
        </mxCell>
        <mxCell id="PxOsfcCbK2ERCezt7H-_-37" style="edgeStyle=orthogonalEdgeStyle;rounded=0;orthogonalLoop=1;jettySize=auto;html=1;" edge="1" parent="1" source="PxOsfcCbK2ERCezt7H-_-9" target="PxOsfcCbK2ERCezt7H-_-34">
          <mxGeometry relative="1" as="geometry">
            <Array as="points">
              <mxPoint x="190" y="520" />
              <mxPoint x="190" y="520" />
            </Array>
          </mxGeometry>
        </mxCell>
        <mxCell id="PxOsfcCbK2ERCezt7H-_-9" value="Organizador" style="shape=umlActor;verticalLabelPosition=bottom;verticalAlign=top;html=1;outlineConnect=0;" vertex="1" parent="1">
          <mxGeometry x="80" y="490" width="30" height="60" as="geometry" />
        </mxCell>
        <mxCell id="PxOsfcCbK2ERCezt7H-_-18" style="edgeStyle=orthogonalEdgeStyle;rounded=0;orthogonalLoop=1;jettySize=auto;html=1;dashed=1;" edge="1" parent="1" source="PxOsfcCbK2ERCezt7H-_-10" target="PxOsfcCbK2ERCezt7H-_-17">
          <mxGeometry relative="1" as="geometry">
            <Array as="points">
              <mxPoint x="460" y="80" />
              <mxPoint x="460" y="80" />
            </Array>
          </mxGeometry>
        </mxCell>
        <mxCell id="PxOsfcCbK2ERCezt7H-_-19" value="&amp;lt;&amp;lt;include&amp;gt;&amp;gt;" style="edgeLabel;html=1;align=center;verticalAlign=middle;resizable=0;points=[];" vertex="1" connectable="0" parent="PxOsfcCbK2ERCezt7H-_-18">
          <mxGeometry x="-0.1064" relative="1" as="geometry">
            <mxPoint as="offset" />
          </mxGeometry>
        </mxCell>
        <mxCell id="PxOsfcCbK2ERCezt7H-_-10" value="Cadastrar competição" style="ellipse;whiteSpace=wrap;html=1;" vertex="1" parent="1">
          <mxGeometry x="240" y="60" width="186" height="60" as="geometry" />
        </mxCell>
        <mxCell id="PxOsfcCbK2ERCezt7H-_-11" value="Gerenciar países participantes" style="ellipse;whiteSpace=wrap;html=1;" vertex="1" parent="1">
          <mxGeometry x="240" y="150" width="186" height="60" as="geometry" />
        </mxCell>
        <mxCell id="PxOsfcCbK2ERCezt7H-_-13" value="Atualizar detalhes da competição" style="ellipse;whiteSpace=wrap;html=1;" vertex="1" parent="1">
          <mxGeometry x="240" y="240" width="186" height="60" as="geometry" />
        </mxCell>
        <mxCell id="PxOsfcCbK2ERCezt7H-_-16" value="" style="swimlane;startSize=0;" vertex="1" parent="1">
          <mxGeometry x="200" y="40" width="820" height="910" as="geometry">
            <mxRectangle x="190" y="50" width="50" height="40" as="alternateBounds" />
          </mxGeometry>
        </mxCell>
        <mxCell id="PxOsfcCbK2ERCezt7H-_-14" value="Cancelar competição" style="ellipse;whiteSpace=wrap;html=1;" vertex="1" parent="PxOsfcCbK2ERCezt7H-_-16">
          <mxGeometry x="50" y="280" width="186" height="60" as="geometry" />
        </mxCell>
        <mxCell id="PxOsfcCbK2ERCezt7H-_-25" value="" style="edgeStyle=orthogonalEdgeStyle;rounded=0;orthogonalLoop=1;jettySize=auto;html=1;dashed=1;" edge="1" parent="PxOsfcCbK2ERCezt7H-_-16" source="PxOsfcCbK2ERCezt7H-_-17" target="PxOsfcCbK2ERCezt7H-_-24">
          <mxGeometry relative="1" as="geometry" />
        </mxCell>
        <mxCell id="PxOsfcCbK2ERCezt7H-_-26" value="&amp;lt;&amp;lt;include&amp;gt;" style="edgeLabel;html=1;align=center;verticalAlign=middle;resizable=0;points=[];" vertex="1" connectable="0" parent="PxOsfcCbK2ERCezt7H-_-25">
          <mxGeometry x="-0.075" y="4" relative="1" as="geometry">
            <mxPoint as="offset" />
          </mxGeometry>
        </mxCell>
        <mxCell id="PxOsfcCbK2ERCezt7H-_-17" value="Alocar local" style="ellipse;whiteSpace=wrap;html=1;" vertex="1" parent="PxOsfcCbK2ERCezt7H-_-16">
          <mxGeometry x="330" y="10" width="186" height="60" as="geometry" />
        </mxCell>
        <mxCell id="PxOsfcCbK2ERCezt7H-_-20" value="Cadastrar atleta" style="ellipse;whiteSpace=wrap;html=1;" vertex="1" parent="PxOsfcCbK2ERCezt7H-_-16">
          <mxGeometry x="330" y="100" width="186" height="60" as="geometry" />
        </mxCell>
        <mxCell id="PxOsfcCbK2ERCezt7H-_-24" value="Gerenciar disponibilidade de locais" style="ellipse;whiteSpace=wrap;html=1;" vertex="1" parent="PxOsfcCbK2ERCezt7H-_-16">
          <mxGeometry x="596" y="10" width="186" height="60" as="geometry" />
        </mxCell>
        <mxCell id="PxOsfcCbK2ERCezt7H-_-27" value="Gerar relatório de medalhas" style="ellipse;whiteSpace=wrap;html=1;" vertex="1" parent="PxOsfcCbK2ERCezt7H-_-16">
          <mxGeometry x="290" y="280" width="186" height="60" as="geometry" />
        </mxCell>
        <mxCell id="PxOsfcCbK2ERCezt7H-_-35" style="edgeStyle=orthogonalEdgeStyle;rounded=0;orthogonalLoop=1;jettySize=auto;html=1;entryX=1;entryY=1;entryDx=0;entryDy=0;dashed=1;" edge="1" parent="PxOsfcCbK2ERCezt7H-_-16" source="PxOsfcCbK2ERCezt7H-_-34" target="PxOsfcCbK2ERCezt7H-_-27">
          <mxGeometry relative="1" as="geometry" />
        </mxCell>
        <mxCell id="PxOsfcCbK2ERCezt7H-_-36" value="&amp;lt;&amp;lt;include&amp;gt;&amp;gt;" style="edgeLabel;html=1;align=center;verticalAlign=middle;resizable=0;points=[];" vertex="1" connectable="0" parent="PxOsfcCbK2ERCezt7H-_-35">
          <mxGeometry x="0.3208" y="-1" relative="1" as="geometry">
            <mxPoint as="offset" />
          </mxGeometry>
        </mxCell>
        <mxCell id="PxOsfcCbK2ERCezt7H-_-34" value="Registrar resultados" style="ellipse;whiteSpace=wrap;html=1;" vertex="1" parent="PxOsfcCbK2ERCezt7H-_-16">
          <mxGeometry x="50" y="450" width="186" height="60" as="geometry" />
        </mxCell>
        <mxCell id="PxOsfcCbK2ERCezt7H-_-39" value="Consultar programação" style="ellipse;whiteSpace=wrap;html=1;" vertex="1" parent="PxOsfcCbK2ERCezt7H-_-16">
          <mxGeometry x="50" y="610" width="186" height="60" as="geometry" />
        </mxCell>
        <mxCell id="PxOsfcCbK2ERCezt7H-_-42" value="Consultar perfil atleta" style="ellipse;whiteSpace=wrap;html=1;" vertex="1" parent="PxOsfcCbK2ERCezt7H-_-16">
          <mxGeometry x="154" y="750" width="176" height="60" as="geometry" />
        </mxCell>
        <mxCell id="PxOsfcCbK2ERCezt7H-_-43" value="Inscrever atleta" style="ellipse;whiteSpace=wrap;html=1;" vertex="1" parent="PxOsfcCbK2ERCezt7H-_-16">
          <mxGeometry x="154" y="830" width="186" height="60" as="geometry" />
        </mxCell>
        <mxCell id="PxOsfcCbK2ERCezt7H-_-22" style="edgeStyle=orthogonalEdgeStyle;rounded=0;orthogonalLoop=1;jettySize=auto;html=1;dashed=1;" edge="1" parent="1" source="PxOsfcCbK2ERCezt7H-_-10" target="PxOsfcCbK2ERCezt7H-_-20">
          <mxGeometry relative="1" as="geometry">
            <Array as="points">
              <mxPoint x="333" y="130" />
              <mxPoint x="530" y="130" />
            </Array>
          </mxGeometry>
        </mxCell>
        <mxCell id="PxOsfcCbK2ERCezt7H-_-23" value="&amp;lt;&amp;lt;include&amp;gt;&amp;gt;" style="edgeLabel;html=1;align=center;verticalAlign=middle;resizable=0;points=[];" vertex="1" connectable="0" parent="PxOsfcCbK2ERCezt7H-_-22">
          <mxGeometry x="0.0672" relative="1" as="geometry">
            <mxPoint as="offset" />
          </mxGeometry>
        </mxCell>
        <mxCell id="PxOsfcCbK2ERCezt7H-_-28" style="edgeStyle=orthogonalEdgeStyle;rounded=0;orthogonalLoop=1;jettySize=auto;html=1;entryX=0;entryY=0.633;entryDx=0;entryDy=0;entryPerimeter=0;" edge="1" parent="1" source="PxOsfcCbK2ERCezt7H-_-1" target="PxOsfcCbK2ERCezt7H-_-10">
          <mxGeometry relative="1" as="geometry">
            <Array as="points">
              <mxPoint x="170" y="180" />
              <mxPoint x="170" y="98" />
            </Array>
          </mxGeometry>
        </mxCell>
        <mxCell id="PxOsfcCbK2ERCezt7H-_-30" style="edgeStyle=orthogonalEdgeStyle;rounded=0;orthogonalLoop=1;jettySize=auto;html=1;entryX=-0.005;entryY=0.617;entryDx=0;entryDy=0;entryPerimeter=0;" edge="1" parent="1" source="PxOsfcCbK2ERCezt7H-_-1" target="PxOsfcCbK2ERCezt7H-_-13">
          <mxGeometry relative="1" as="geometry">
            <Array as="points">
              <mxPoint x="170" y="180" />
              <mxPoint x="170" y="277" />
            </Array>
          </mxGeometry>
        </mxCell>
        <mxCell id="PxOsfcCbK2ERCezt7H-_-41" style="edgeStyle=orthogonalEdgeStyle;rounded=0;orthogonalLoop=1;jettySize=auto;html=1;entryX=0.269;entryY=1;entryDx=0;entryDy=0;entryPerimeter=0;" edge="1" parent="1" source="PxOsfcCbK2ERCezt7H-_-3" target="PxOsfcCbK2ERCezt7H-_-39">
          <mxGeometry relative="1" as="geometry" />
        </mxCell>
        <mxCell id="PxOsfcCbK2ERCezt7H-_-44" style="edgeStyle=orthogonalEdgeStyle;rounded=0;orthogonalLoop=1;jettySize=auto;html=1;entryX=0;entryY=1;entryDx=0;entryDy=0;" edge="1" parent="1" target="PxOsfcCbK2ERCezt7H-_-42">
          <mxGeometry relative="1" as="geometry">
            <mxPoint x="110" y="840" as="sourcePoint" />
            <mxPoint x="399.9359999999999" y="840" as="targetPoint" />
          </mxGeometry>
        </mxCell>
        <mxCell id="PxOsfcCbK2ERCezt7H-_-45" style="edgeStyle=orthogonalEdgeStyle;rounded=0;orthogonalLoop=1;jettySize=auto;html=1;entryX=0;entryY=0.5;entryDx=0;entryDy=0;" edge="1" parent="1" target="PxOsfcCbK2ERCezt7H-_-43">
          <mxGeometry relative="1" as="geometry">
            <mxPoint x="110" y="850" as="sourcePoint" />
            <mxPoint x="354.93000000000006" y="927.98" as="targetPoint" />
            <Array as="points">
              <mxPoint x="150" y="850" />
              <mxPoint x="150" y="900" />
            </Array>
          </mxGeometry>
        </mxCell>
      </root>
    </mxGraphModel>
  </diagram>
</mxfile>
